<svg width="1574" height="1518" viewBox="0 0 1574 1518" fill="none" xmlns="http://www.w3.org/2000/svg">
<path d="M1237.65 652.011C1357.5 551.566 1539.14 592.033 1538.04 748.758C1537.91 767.926 1536.99 787.317 1535.26 806.874C1523.89 935.453 1478.35 1065.24 1404.61 1179.2C1330.87 1293.16 1232.38 1385.97 1122.07 1445.44C1011.75 1504.91 894.769 1528.27 786.47 1512.46C678.17 1496.64 583.617 1442.38 515.221 1356.8C446.825 1271.22 407.782 1158.33 403.217 1032.93C398.651 907.532 428.777 775.494 489.64 654.145C508.481 616.579 529.996 580.581 553.838 546.56C634.507 431.448 796.899 474.701 852.783 603.935C911.499 739.721 1083.91 780.848 1197.03 686.051L1237.65 652.011Z" fill="#C2DCFB" fill-opacity="0.45"/>
<path d="M999.489 650.555C1146.02 704.456 1202.14 881.644 1066.62 959.189C1049.7 968.871 1032.17 977.953 1014.07 986.396C897.413 1040.81 762.626 1066.13 627.401 1059.03C492.176 1051.93 362.831 1012.75 256.343 946.625C149.855 880.5 71.2007 790.523 30.7039 688.503C-9.79287 586.483 -10.2398 477.188 29.4219 374.965C69.0836 272.741 147 182.365 252.945 115.699C358.89 49.0333 487.912 9.19307 623.077 1.40762C664.66 -0.987595 706.227 -0.314395 747.262 3.33307C887.633 15.8102 931.728 178.489 848.001 291.844C760.006 410.976 811.009 581.226 950.01 632.355L999.489 650.555Z" fill="#C2DCFB" fill-opacity="0.45"/>
<path d="M802.316 228.205H97.9219V706.8H802.316V228.205Z" fill="#F5EBDD"/>
<path d="M754.934 275.747H145.301V659.258H754.934V275.747Z" fill="#30242A"/>
<path d="M507.319 1510.98C509.994 1510.98 512.629 1510.34 515.001 1509.09C517.372 1507.85 519.409 1506.05 520.939 1503.85C522.468 1501.65 523.444 1499.11 523.784 1496.45C524.124 1493.78 523.818 1491.08 522.892 1488.56L482.176 1377.86H417.422L493.121 1503.06C494.613 1505.49 496.703 1507.49 499.189 1508.88C501.675 1510.27 504.474 1510.99 507.319 1510.98Z" fill="black"/>
<path d="M430.575 926.305H726.089V1511H302.82V1054.48C302.825 1020.48 316.286 987.882 340.244 963.845C364.202 939.808 396.695 926.305 430.575 926.305Z" fill="#FFB7D5"/>
<path d="M759.501 594.283H1176.81C1210.69 594.287 1243.19 607.795 1267.14 631.835C1291.1 655.875 1304.55 688.478 1304.55 722.474V1496.01H631.746V722.474C631.746 688.475 645.206 655.87 669.164 631.829C693.123 607.789 725.618 594.283 759.501 594.283Z" fill="#FFB7D5"/>
<path d="M609.461 1067.46H1176.81C1210.69 1067.46 1243.18 1080.97 1267.13 1105.01C1291.09 1129.04 1304.55 1161.64 1304.55 1195.63V1496.01H481.707V1195.63C481.711 1161.64 495.173 1129.04 519.131 1105C543.089 1080.96 575.582 1067.46 609.461 1067.46Z" fill="#FFB7D5"/>
<path d="M872.182 1224.73H527.66" stroke="#CA7358" stroke-width="4" stroke-miterlimit="10"/>
<path d="M474.973 1210.61V1510.98" stroke="#CA7358" stroke-width="4" stroke-miterlimit="10"/>
<path d="M1302.55 924.419H1035.42" stroke="#CA7358" stroke-width="4" stroke-miterlimit="10"/>
<path d="M789.265 849.698C789.265 849.698 640.806 882.978 564.996 925.766C487.039 969.759 479.711 1031.5 431.051 1179.79C409.698 1244.76 398.974 1291.42 387.492 1323.37L519.985 1386.14C526.302 1374.38 531.925 1362.81 536.568 1352.07C536.568 1352.07 597.31 1349.36 603.106 1267.79C607.434 1206.85 609.519 1161.75 630.714 1116.24L992.861 849L789.265 849.698Z" fill="#30242A"/>
<path d="M328.408 1380.4C327.744 1380.51 327.081 1380.64 326.402 1380.73C279.479 1387.88 259.895 1397.04 252.172 1418.39L448.012 1509.99C450.248 1511.03 452.777 1511.27 455.166 1510.65C457.554 1510.03 459.654 1508.6 461.105 1506.59C461.933 1505.46 462.528 1504.16 462.854 1502.79C463.18 1501.42 463.232 1500 463.005 1498.6C462.779 1497.21 462.28 1495.88 461.536 1494.68C460.792 1493.49 459.819 1492.45 458.673 1491.63L329.671 1432.89C332.714 1415.48 332.285 1397.64 328.408 1380.4Z" fill="#30242A"/>
<path d="M515.244 1386.14L382.752 1323.37C375.977 1342.22 368.933 1355.98 359.283 1365.41C351.26 1373.33 341.404 1378.09 328.406 1380.4C332.284 1397.64 332.713 1415.48 329.67 1432.89L458.735 1491.63C458.237 1491.28 457.708 1490.96 457.156 1490.7L452.417 1488.43C460.093 1477.34 472.144 1459.24 485.031 1438.32C495.266 1421.92 505.863 1403.82 515.244 1386.14Z" fill="#C8866D"/>
<path d="M530.742 1354.32L392.848 1289.47" stroke="#F5EBDD" stroke-width="4" stroke-linecap="round" stroke-linejoin="round"/>
<path d="M1068.02 913.738L1062.49 852.661H953.518C953.518 852.661 770.312 896.654 692.434 934.133C614.919 971.407 624.222 1057.98 638.831 1209.53C646.285 1286.79 655.588 1339.85 655.098 1377.42H798.82C799.609 1365.23 800.136 1352.37 800.399 1338.83C800.399 1338.83 856.466 1312.19 827.248 1225.82C807.68 1167.98 790.781 1129.68 790.781 1079.44H917.193C938.236 1079.44 959.049 1075.04 978.305 1066.53C997.56 1058.01 1014.83 1045.56 1029.03 1029.96C1043.22 1014.37 1054.01 995.986 1060.73 975.974C1067.44 955.963 1069.93 934.766 1068.02 913.738Z" fill="#30242A"/>
<path d="M616.232 1447.94C579.717 1472.85 566.83 1489.15 568.851 1510.94L785.081 1510.65C787.398 1510.55 789.587 1509.56 791.191 1507.88C792.796 1506.2 793.691 1503.97 793.691 1501.64C793.691 1499.32 792.796 1497.08 791.191 1495.4C789.587 1493.72 787.398 1492.73 785.081 1492.63H640.807C640.807 1492.63 632.91 1465.88 616.232 1447.94Z" fill="#30242A"/>
<path d="M650.36 1377.42C650.092 1398.82 646.649 1415.2 637.868 1428.13C633.132 1434.99 627.1 1440.84 620.116 1445.36L616.23 1447.94C632.924 1465.83 640.805 1492.63 640.805 1492.63H777.388C782.574 1471.38 786.54 1449.84 789.265 1428.13C791.224 1412.98 792.929 1396.01 794.13 1377.42H650.36Z" fill="#C8866D"/>
<path d="M792.422 895.656C757.519 906.844 716.329 920.536 689.764 933.69C629.101 963.689 621.362 1022.18 627.948 1119.58" stroke="#A15842" stroke-width="4" stroke-linecap="round" stroke-linejoin="round"/>
<path d="M784.528 1083.2H745.344" stroke="#A15842" stroke-width="4" stroke-linecap="round" stroke-linejoin="round"/>
<path d="M795.584 1341.51H648.703" stroke="#F5EBDD" stroke-width="4" stroke-miterlimit="10" stroke-linecap="round"/>
<path d="M1009.04 911.329H1304.55V1496.02H881.285V1039.5C881.289 1005.51 894.751 972.907 918.709 948.87C942.667 924.833 975.16 911.329 1009.04 911.329Z" fill="#FFB7D5"/>
<path d="M871.391 1079.5V1509.1" stroke="#CA7358" stroke-width="4" stroke-miterlimit="10"/>
<path d="M1574 1505.85C1573.86 1506.24 1573.68 1506.61 1573.46 1506.96C1573.68 1506.61 1573.86 1506.24 1574 1505.85Z" fill="#CA7358"/>
<path d="M1292.48 1469.8L1251.09 1509.42H1356.91C1362.48 1509.42 1365.74 1508.12 1367.19 1505.88C1359.04 1507.4 1311.78 1480.89 1292.48 1469.8Z" fill="#CA7358"/>
<path d="M1367.76 1504.71C1373.03 1489.8 1319 1444.49 1319 1444.49L1292.48 1469.84C1311.78 1480.94 1359.04 1507.45 1367.19 1505.91C1367.42 1505.53 1367.61 1505.13 1367.76 1504.71Z" fill="#FFB7D5"/>
<path d="M1360.07 1362.02C1358.49 1369.94 1285.84 1382.62 1285.84 1382.62L1281.29 1352.38L1279.52 1352.51L1291.3 1442.84C1291.3 1442.84 1364.8 1377.86 1360.07 1362.02Z" fill="#CA7358"/>
<path d="M1360.07 1362.02C1355.96 1348.29 1292.72 1351.67 1281.29 1352.38L1285.84 1382.62C1285.84 1382.62 1358.49 1369.94 1360.07 1362.02Z" fill="#FFB7D5"/>
<path d="M1272.71 1361.13L1275.44 1304.06" stroke="#30242A" stroke-width="4" stroke-linecap="round" stroke-linejoin="round"/>
<path d="M1261.61 1354.89L1246.84 1282.1" stroke="#30242A" stroke-width="4" stroke-linecap="round" stroke-linejoin="round"/>
<path d="M1020.51 1509.84L946.623 1411.07L981.021 1374.62C977.862 1363.52 963.648 1314.4 944.696 1298.55C925.743 1282.7 908.37 1282.7 898.894 1285.87L898.61 1285.97C896.271 1286.83 894.213 1288.32 892.657 1290.28C891.102 1292.24 890.108 1294.58 889.783 1297.06C889.458 1299.54 889.814 1302.06 890.813 1304.36C891.812 1306.65 893.416 1308.62 895.451 1310.07L913.109 1325.57C913.109 1325.57 873.625 1355.68 873.625 1388.96C873.625 1412.16 886.102 1424.04 898.468 1430.16L865.728 1476.12C865.728 1476.12 832.561 1480.87 767.808 1461.86C748.081 1456.06 726.744 1446.01 706.813 1436.79C706.813 1458.37 696.926 1475.66 682.285 1488.39C715.862 1501.67 758.6 1509.84 791.766 1509.84H1020.51Z" fill="#A15842"/>
<path d="M821.504 1475.33C827 1485.96 833.744 1496.86 845.637 1506.52" stroke="#30242A" stroke-width="4" stroke-miterlimit="10" stroke-linecap="round"/>
<path d="M976.283 1369.15L963.648 1378.66" stroke="#30242A" stroke-width="4" stroke-miterlimit="10" stroke-linecap="round"/>
<path d="M712.547 1441.13C679.381 1425.87 650.163 1413.33 639.297 1428.17C620.739 1453.52 647.778 1476.79 688.02 1492.73C702.66 1480 712.626 1462.71 712.547 1441.13Z" fill="#F5EBDD"/>
<path d="M1309.53 1404.76C1309.53 1398.04 1317.96 1389.23 1324.59 1386.52C1312.23 1352.51 1262.68 1322.94 1211.61 1349.34C1211.61 1349.34 1205.29 1317.64 1187.92 1304.97C1171.66 1293.1 1154.75 1291.92 1142.11 1296.68L1141.74 1296.82C1139.46 1297.74 1137.45 1299.22 1135.89 1301.13C1134.34 1303.03 1133.3 1305.31 1132.86 1307.73C1132.43 1310.16 1132.61 1312.65 1133.4 1314.98C1134.19 1317.32 1135.56 1319.41 1137.38 1321.07L1159.49 1341.42L1148.43 1363.24C1137.17 1352.99 1123.94 1345.17 1109.55 1340.24C1108.3 1399.53 1030.72 1425.65 992.076 1412.73C978.493 1393.71 967.264 1383.95 964.39 1381.62L963.647 1382.25C963.647 1382.25 930.481 1360.43 900.473 1382.62C900.473 1382.62 884.679 1346.17 865.727 1331.54C849.697 1319.17 818.346 1318.86 810.449 1326.79L810.212 1327.03C808.389 1328.9 807.007 1331.15 806.171 1333.63C805.335 1336.11 805.066 1338.74 805.383 1341.34C805.7 1343.94 806.595 1346.43 808.003 1348.63C809.41 1350.83 811.294 1352.69 813.513 1354.06L835.719 1367.99C835.719 1367.99 778.862 1453.57 854.671 1509.84H1257.41C1317.87 1509.84 1332.05 1461.18 1330.69 1422.14C1323.54 1420.27 1309.53 1415.25 1309.53 1404.76Z" fill="#CA7358"/>
<path d="M992.077 1412.73C1030.72 1425.65 1108.3 1399.53 1109.55 1340.24C1093.67 1334.62 1076.71 1332.72 1059.99 1334.71C1014.19 1340.12 970.44 1376.42 964.391 1381.62C967.265 1383.95 978.494 1393.63 992.077 1412.73Z" fill="#F5EBDD"/>
<path d="M1309.53 1404.76C1309.53 1415.25 1323.54 1420.27 1330.69 1422.19C1330.38 1410.82 1328.58 1399.54 1325.32 1388.64C1325.1 1387.94 1324.83 1387.26 1324.59 1386.56C1317.96 1389.23 1309.53 1398.04 1309.53 1404.76Z" fill="#30242A"/>
<path d="M1296.84 1408.55L1319.3 1405.22" stroke="#30242A" stroke-width="4" stroke-linecap="round" stroke-linejoin="round"/>
<path d="M1215.62 1350.13C1222.05 1376.12 1229.96 1412.44 1232.99 1435.71" stroke="#30242A" stroke-width="4" stroke-linecap="round" stroke-linejoin="round"/>
<path d="M1146.06 1312.1L1140.19 1320.92" stroke="#30242A" stroke-width="4" stroke-linecap="round" stroke-linejoin="round"/>
<path d="M1157.12 1321.61L1150.93 1330.91" stroke="#30242A" stroke-width="4" stroke-linecap="round" stroke-linejoin="round"/>
<path d="M817.556 1340.62L811.617 1349.56" stroke="#30242A" stroke-width="4" stroke-linecap="round" stroke-linejoin="round"/>
<path d="M830.193 1348.55L823.781 1358.18" stroke="#30242A" stroke-width="4" stroke-linecap="round" stroke-linejoin="round"/>
<path d="M1146.03 1362.26C1117.3 1414.93 1093.58 1470.79 1138.5 1507.75" stroke="#30242A" stroke-width="4" stroke-linecap="round" stroke-linejoin="round"/>
<path d="M1007.87 1449.97C1001.55 1421.45 982.112 1385.85 957.332 1375.49C938.38 1367.56 919.428 1369.15 902.055 1378.66C902.055 1378.66 894.553 1362.51 888.52 1353.67" stroke="#30242A" stroke-width="4" stroke-miterlimit="10" stroke-linecap="round"/>
<path d="M1284.84 1390.11C1284.84 1390.11 1289.58 1404.95 1296.85 1408.55C1296.85 1408.55 1291.7 1415.95 1290.85 1430.27" stroke="#30242A" stroke-width="4" stroke-linecap="round" stroke-linejoin="round"/>
<path d="M1086.84 1335.08C1086.84 1335.08 1074.2 1357.26 1053.67 1355.68C1033.14 1354.09 1034.72 1323.98 1058.41 1306.55C1068.4 1300.65 1080.24 1298.74 1091.57 1301.19C1111.76 1305.62 1123.57 1346.41 1123.57 1346.41C1123.57 1346.41 1102.63 1336.66 1086.84 1335.08Z" fill="#CA7358"/>
<path d="M1265.3 1209.03L1291.3 1193.08L1279.74 1233.65L1310.32 1215.43" stroke="#FFB7D5" stroke-width="4" stroke-linecap="round" stroke-linejoin="round"/>
<path d="M1347.2 1295.35L1374.57 1293.16L1348.79 1321.07L1379.64 1318.91" stroke="#FFB7D5" stroke-width="4" stroke-linecap="round" stroke-linejoin="round"/>
<path d="M1367.73 1235.13L1395.1 1232.94L1369.32 1260.85L1400.17 1258.69" stroke="#FFB7D5" stroke-width="4" stroke-linecap="round" stroke-linejoin="round"/>
<path d="M1051.22 1340.5L1051.19 1352.51" stroke="#30242A" stroke-width="4" stroke-linecap="round" stroke-linejoin="round"/>
<path d="M1065.68 1339.12L1065.64 1351.02" stroke="#30242A" stroke-width="4" stroke-linecap="round" stroke-linejoin="round"/>
<path d="M900.663 1301.46L894.945 1307.6" stroke="#30242A" stroke-width="4" stroke-linecap="round" stroke-linejoin="round"/>
<path d="M911.846 1309.77L905.039 1317.07" stroke="#30242A" stroke-width="4" stroke-linecap="round" stroke-linejoin="round"/>
<path d="M546.516 703.013L495.503 667.689L493.308 666.104C479.804 659.765 443.147 661.587 444.995 646.786C445.39 643.616 449.101 641.223 454.961 639.575L380.826 588.372C378.082 586.485 374.708 585.759 371.435 586.352C368.162 586.946 365.254 588.81 363.342 591.541L355.445 602.936C359.395 606.386 361.939 611.174 362.594 616.387C363.249 621.599 361.968 626.872 358.995 631.197C356.023 635.522 351.567 638.597 346.478 639.836C341.39 641.074 336.025 640.389 331.407 637.911L322.374 651.049C320.488 653.803 319.762 657.192 320.353 660.48C320.945 663.768 322.806 666.689 325.532 668.608L491.207 783.249C493.952 785.141 497.329 785.87 500.606 785.276C503.883 784.683 506.794 782.815 508.706 780.08L523.142 759.082L549.738 720.54C551.608 717.781 552.318 714.394 551.715 711.113C551.111 707.832 549.244 704.921 546.516 703.013ZM450.491 732.426C443.775 732.426 437.21 730.428 431.626 726.684C426.042 722.94 421.69 717.619 419.12 711.393C416.55 705.167 415.877 698.316 417.187 691.707C418.498 685.097 421.732 679.026 426.48 674.261C431.229 669.496 437.28 666.251 443.867 664.936C450.453 663.622 457.281 664.296 463.486 666.875C469.69 669.454 474.994 673.821 478.725 679.424C482.456 685.027 484.447 691.615 484.447 698.354C484.443 707.389 480.864 716.053 474.497 722.442C468.13 728.831 459.496 732.422 450.491 732.426ZM525.511 726.673L505.769 755.199C504.905 756.433 503.591 757.275 502.113 757.542C500.634 757.809 499.11 757.48 497.872 756.625C496.636 755.764 495.791 754.446 495.522 752.961C495.253 751.476 495.581 749.944 496.435 748.701L516.192 720.176C516.619 719.56 517.162 719.034 517.79 718.629C518.419 718.223 519.121 717.946 519.857 717.813C520.592 717.68 521.347 717.693 522.077 717.852C522.807 718.012 523.499 718.314 524.113 718.742C524.727 719.169 525.251 719.714 525.655 720.345C526.059 720.976 526.335 721.68 526.468 722.418C526.601 723.156 526.587 723.913 526.429 724.646C526.27 725.379 525.969 726.073 525.542 726.689L525.511 726.673Z" fill="#FF7235"/>
<path d="M450.491 732.426C469.245 732.426 484.448 717.171 484.448 698.354C484.448 679.536 469.245 664.281 450.491 664.281C431.738 664.281 416.535 679.536 416.535 698.354C416.535 717.171 431.738 732.426 450.491 732.426Z" fill="#010101"/>
<path d="M362.839 619.116C362.84 616.059 362.187 613.038 360.922 610.257C359.658 607.477 357.812 605.001 355.51 602.999L331.473 637.975C334.559 639.644 338.011 640.516 341.517 640.51C347.172 640.51 352.595 638.256 356.594 634.244C360.592 630.232 362.839 624.79 362.839 619.116Z" fill="#111617"/>
<path d="M524.042 718.718C522.802 717.865 521.277 717.538 519.798 717.808C518.319 718.078 517.006 718.924 516.145 720.16L496.388 748.685C495.534 749.928 495.205 751.46 495.475 752.945C495.744 754.43 496.589 755.748 497.825 756.609C499.063 757.464 500.587 757.793 502.065 757.526C503.544 757.259 504.858 756.417 505.721 755.183L525.463 726.657C526.324 725.415 526.658 723.881 526.391 722.392C526.125 720.903 525.28 719.582 524.042 718.718Z" fill="#30242A"/>
<path d="M468.655 767.291C468.655 767.291 454.441 783.138 440.227 768.875C440.227 768.875 422.854 773.63 416.536 759.367C416.536 759.367 402.322 765.706 396.005 751.443C395.594 750.524 387.792 754.866 380.211 745.104C369.156 730.841 362.838 691.222 372.314 689.638C388.582 686.912 395.468 717.529 395.752 716.578C399.306 704.518 405.465 694.392 411.798 694.392C422.854 694.392 424.433 705.485 424.433 705.485C424.433 705.485 431.114 696.531 440.227 699.146C451.282 702.316 448.124 716.578 448.124 716.578C448.124 716.578 458.263 709.827 463.917 719.748C470.235 730.841 457.6 745.104 459.179 760.952L468.655 767.291Z" fill="#EAA58B"/>
<path d="M447.205 714.106C440.461 725.928 429.832 748.844 436.529 766.562" stroke="#A15842" stroke-width="4" stroke-linecap="round" stroke-linejoin="round"/>
<path d="M423.121 703.108C418.841 713.25 409.87 737.846 413.739 757.671" stroke="#A15842" stroke-width="4" stroke-linecap="round" stroke-linejoin="round"/>
<path d="M394 712.616C391.915 722.759 390.383 736.277 393.068 748.622" stroke="#A15842" stroke-width="4" stroke-linecap="round" stroke-linejoin="round"/>
<path d="M989.845 477.28C1008.8 470.941 1030.91 444 1015.11 421.814C994.188 392.401 958.257 431.322 958.257 431.322C943.037 420.184 931.486 404.73 925.091 386.949C920.353 388.534 906.139 390.119 895.083 386.949C895.083 386.949 890.345 399.627 887.186 421.814C886.76 424.857 886.254 427.788 885.702 430.609C885.702 430.609 871.393 429.738 869.813 436.077C867.855 443.905 880.379 452.32 880.379 452.32C875.483 470.022 871.408 483.635 877.71 499.467C883.269 513.429 895.083 529.577 932.988 524.823L930.824 541.463H1043.86C1044.49 534.823 1045.23 526.915 1046.02 518.373C1033.2 514.047 1001.11 501.147 989.845 477.28Z" fill="#C8866D"/>
<path d="M1002.48 334.653C956.676 314.051 914.033 345.746 914.033 345.746C914.033 345.746 875.086 334.494 872.97 360.009C871.391 379.026 895.081 386.949 895.081 386.949C906.137 390.119 920.351 388.534 925.089 386.949C931.484 404.73 943.035 420.184 958.256 431.323C958.256 431.323 994.186 392.401 1015.11 421.814C1030.91 444.001 1008.8 470.941 989.843 477.28C1001.1 501.147 1033.2 514.047 1046.02 518.373C1048.8 488.152 1052.13 449.88 1053.02 431.323C1054.45 401.07 1051.44 356.696 1002.48 334.653Z" fill="#262126"/>
<path d="M688.187 683.299C688.187 683.299 577.632 651.603 534.989 642.095C509.056 636.311 472.384 634.742 454.932 639.639C449.072 641.223 445.361 643.664 444.966 646.849C443.118 661.651 479.712 659.813 493.279 666.167L546.519 703.013C549.245 704.931 551.106 707.852 551.698 711.14C552.289 714.429 551.563 717.818 549.677 720.572L523.207 759.082C563.944 780.261 607.99 794.293 653.441 800.57C695.342 806.386 746.197 782.995 782.601 761.475L721.528 660.32C701.896 673.758 688.187 683.299 688.187 683.299Z" fill="#C8866D"/>
<path d="M1043.86 541.463H930.824L928.25 561.272C928.25 561.272 872.735 560.1 833.488 585.044C803.828 603.886 754.394 637.626 721.527 660.24L782.601 761.474C799.16 751.737 815.1 740.977 830.329 729.256L789.266 849.698H1062.5L1041.96 561.272C1041.96 561.272 1042.74 553.428 1043.86 541.463Z" fill="#FF7235"/>
<path d="M925.088 565.234L922.719 584.251" stroke="#A15842" stroke-width="4" stroke-linecap="round" stroke-linejoin="round"/>
<path d="M850.071 663.489L828.75 726.879" stroke="#A15842" stroke-width="4" stroke-linecap="round" stroke-linejoin="round"/>
<path d="M893.266 466.979C895.872 468.564 905.664 469.88 909.628 462.32" stroke="#A15842" stroke-width="4" stroke-linecap="round" stroke-linejoin="round"/>
<path d="M907.719 429.738C910.335 429.738 912.457 427.609 912.457 424.984C912.457 422.358 910.335 420.229 907.719 420.229C905.102 420.229 902.98 422.358 902.98 424.984C902.98 427.609 905.102 429.738 907.719 429.738Z" fill="black"/>
<path d="M989.846 440.831L972.473 451.924" stroke="#A15842" stroke-width="4" stroke-linecap="round" stroke-linejoin="round"/>
<path d="M951.719 544.601L949.176 565.155" stroke="#A15842" stroke-width="4" stroke-linecap="round" stroke-linejoin="round"/>
<path d="M975.394 544.601L972.867 565.155" stroke="#A15842" stroke-width="4" stroke-linecap="round" stroke-linejoin="round"/>
<path d="M999.066 544.601L996.539 565.155" stroke="#A15842" stroke-width="4" stroke-linecap="round" stroke-linejoin="round"/>
<path d="M934.141 527.612C941.674 526.281 952.161 523.508 960.626 517.692" stroke="#A15842" stroke-width="4" stroke-linecap="round" stroke-linejoin="round"/>
<path d="M1051.79 765.706L1054.6 824.342C1054.6 824.342 921.473 861.774 876.004 896.004C855.472 911.456 830.202 940.52 820.853 952.707C811.503 964.894 773.03 1020.85 789.265 1022.44C805.501 1024.02 830.534 988.887 830.534 988.887C830.534 988.887 814.535 1031.94 819.273 1046.21C824.011 1060.47 838.699 1050.63 838.699 1050.63C852.44 1066.81 864.632 1048.95 864.632 1048.95C888.765 1066.81 913.308 979.061 913.308 979.061C926.622 972.527 938.508 963.401 948.275 952.216C948.275 952.216 1083.5 957.588 1136.72 913.088C1163.37 890.806 1176.52 831.441 1177.05 765.706H1051.79Z" fill="#C8866D"/>
<path d="M1155.67 615.154C1143.97 579.355 1105.14 561.272 1081.44 561.272H1041.96L1051.78 765.706H1177.04C1177.44 714.55 1170.19 659.543 1155.67 615.154Z" fill="#FF7235"/>
<path d="M1055.28 764.279L1050.65 666.659" stroke="#A15842" stroke-width="4" stroke-linecap="round" stroke-linejoin="round"/>
<path d="M1057.11 820.301L1080.66 814.041" stroke="#A15842" stroke-width="4" stroke-linecap="round" stroke-linejoin="round"/>
<path d="M826.82 991.628C831.78 978.316 839.345 958.586 845.33 945.575" stroke="#A15842" stroke-width="4" stroke-linecap="round" stroke-linejoin="round"/>
<path d="M867.441 956.669C850.511 993.261 840.592 1034.32 837.434 1049.15" stroke="#A15842" stroke-width="4" stroke-linecap="round" stroke-linejoin="round"/>
<path d="M891.132 969.347C880.298 994.37 870.3 1027.73 864.867 1047.16" stroke="#A15842" stroke-width="4" stroke-linecap="round" stroke-linejoin="round"/>
<g clip-path="url(#clip0_232_1127)">
<path d="M436.612 523.111C413.142 523.111 394.047 501.012 394.047 481.152V443.017C394.047 423.157 413.142 407 436.612 407C460.083 407 479.178 423.157 479.178 443.017V481.152C479.178 501.012 460.082 523.111 436.612 523.111ZM436.612 423.297C423.762 423.297 413.307 432.143 413.307 443.017V481.152C413.307 492.026 423.762 500.872 436.612 500.872C449.462 500.872 459.917 492.026 459.917 481.152V443.017C459.917 432.143 449.462 423.297 436.612 423.297Z" fill="#6DA8D6"/>
<path d="M436.613 407V423.297C449.463 423.297 459.918 432.143 459.918 443.017V481.152C459.918 492.026 449.463 500.872 436.613 500.872V523.111C460.084 523.111 479.179 501.012 479.179 481.152V443.017C479.179 423.157 460.084 407 436.613 407Z" fill="#2974A8"/>
<path d="M488.615 455.682H384.609V528H488.615V455.682Z" fill="#CA7358"/>
<path d="M488.616 455.682H436.613V528H488.616V455.682Z" fill="#A6573E"/>
<path d="M494.393 469.33H475.133V482.368H494.393V469.33Z" fill="#2974A8"/>
<path d="M494.393 488.887H475.133V501.924H494.393V488.887Z" fill="#6DA8D6"/>
<path d="M494.393 508.443H475.133V521.481H494.393V508.443Z" fill="#2974A8"/>
</g>
<defs>
<clipPath id="clip0_232_1127">
<rect width="143" height="121" fill="white" transform="translate(368 407)"/>
</clipPath>
</defs>
</svg>
